<svg width="112" height="40" viewBox="0 0 112 40" fill="none" xmlns="http://www.w3.org/2000/svg">
<path d="M56 8H62.0088C64.161 8 65.8419 8.5 67.0515 9.5C68.2612 10.492 68.866 11.836 68.866 13.532C68.866 14.74 68.5479 15.784 67.9116 16.664C67.2833 17.536 66.3918 18.18 65.2371 18.596L69.4315 26H65.3903L61.4786 19.1H59.6053V26H56V8ZM61.5847 16.052C62.7707 16.052 63.6701 15.828 64.2828 15.38C64.9033 14.932 65.2135 14.32 65.2135 13.544C65.2135 12.768 64.9033 12.16 64.2828 11.72C63.6701 11.28 62.7707 11.06 61.5847 11.06H59.6053V16.052H61.5847Z" fill="black"/>
<path d="M73.6848 21.032C73.8969 21.696 74.2857 22.236 74.8513 22.652C75.4246 23.068 76.0923 23.276 76.8542 23.276C77.6711 23.276 78.3466 23.144 78.8807 22.88C79.4227 22.608 79.9136 22.26 80.3535 21.836L82.4035 24.332C81.4924 25.06 80.5891 25.56 79.6937 25.832C78.8061 26.104 77.9539 26.24 77.137 26.24C75.8331 26.24 74.6824 25.972 73.6848 25.436C72.6873 24.892 71.9057 24.148 71.3402 23.204C70.7747 22.252 70.4919 21.172 70.4919 19.964C70.4919 18.772 70.7629 17.712 71.3049 16.784C71.8468 15.848 72.5852 15.112 73.5199 14.576C74.4624 14.032 75.5307 13.76 76.7246 13.76C77.9107 13.76 78.9632 14.028 79.8822 14.564C80.809 15.1 81.5395 15.836 82.0736 16.772C82.6078 17.708 82.8748 18.78 82.8748 19.988V21.032H73.6848ZM79.3873 19.112C79.2224 18.408 78.8846 17.84 78.3741 17.408C77.8635 16.976 77.2509 16.76 76.5361 16.76C75.8134 16.76 75.1851 16.98 74.651 17.42C74.1247 17.86 73.7791 18.424 73.6141 19.112H79.3873Z" fill="black"/>
<path d="M85.1252 14H88.3299L88.4124 15.296C88.9072 14.808 89.4845 14.432 90.1443 14.168C90.8041 13.896 91.515 13.76 92.2769 13.76C93.3844 13.76 94.3702 14.032 95.2342 14.576C96.0982 15.112 96.7776 15.852 97.2725 16.796C97.7673 17.732 98.0147 18.8 98.0147 20C98.0147 21.2 97.7673 22.272 97.2725 23.216C96.7776 24.152 96.0982 24.892 95.2342 25.436C94.3702 25.972 93.3844 26.24 92.2769 26.24C91.5385 26.24 90.8512 26.116 90.215 25.868C89.5788 25.612 89.0133 25.26 88.5184 24.812V32H85.1252V14ZM91.511 16.76C90.647 16.76 89.9323 17.068 89.3667 17.684C88.8012 18.3 88.5184 19.072 88.5184 20C88.5184 20.928 88.8012 21.7 89.3667 22.316C89.9323 22.932 90.647 23.24 91.511 23.24C92.3751 23.24 93.0898 22.932 93.6554 22.316C94.2209 21.7 94.5037 20.928 94.5037 20C94.5037 19.072 94.2209 18.3 93.6554 17.684C93.0898 17.068 92.3751 16.76 91.511 16.76Z" fill="black"/>
<path d="M99.4286 20C99.4286 18.8 99.6996 17.732 100.242 16.796C100.791 15.852 101.538 15.112 102.48 14.576C103.431 14.032 104.511 13.76 105.72 13.76C106.93 13.76 108.006 14.032 108.948 14.576C109.891 15.112 110.633 15.852 111.175 16.796C111.725 17.732 112 18.8 112 20C112 21.2 111.725 22.272 111.175 23.216C110.633 24.152 109.891 24.892 108.948 25.436C108.006 25.972 106.93 26.24 105.72 26.24C104.511 26.24 103.431 25.972 102.48 25.436C101.538 24.892 100.791 24.152 100.242 23.216C99.6996 22.272 99.4286 21.2 99.4286 20ZM102.728 20C102.728 20.928 103.01 21.7 103.576 22.316C104.141 22.932 104.856 23.24 105.72 23.24C106.584 23.24 107.299 22.932 107.865 22.316C108.43 21.7 108.713 20.928 108.713 20C108.713 19.072 108.43 18.3 107.865 17.684C107.299 17.068 106.584 16.76 105.72 16.76C104.856 16.76 104.141 17.068 103.576 17.684C103.01 18.3 102.728 19.072 102.728 20Z" fill="black"/>
<path d="M21.1221 30.4822C21.1221 33.9485 23.9304 36.7568 27.3967 36.7568H40.0002C40.0002 33.2905 37.1919 30.4822 33.7256 30.4822H21.1221Z" fill="#3097F5"/>
<path d="M21.1221 21.0406H26.8472C26.8472 23.7608 28.3871 26.1282 30.6392 27.3153H27.3967C23.9304 27.3153 21.1221 24.507 21.1221 21.0406Z" fill="#3097F5"/>
<path d="M18.8781 9.36178C18.8781 5.89548 16.0698 3.08716 12.6035 3.08716H0C0 6.55347 2.80832 9.36178 6.27463 9.36178H18.8781Z" fill="#3097F5"/>
<path d="M18.8779 18.8036H13.1527C13.1527 16.0835 11.6129 13.7161 9.36084 12.529H12.6033C16.0696 12.529 18.8779 15.3373 18.8779 18.8036Z" fill="#3097F5"/>
<path d="M9.43625 21.1212V33.7247C9.43625 37.191 6.62793 39.9994 3.16162 39.9994V27.3958C3.16162 23.9295 5.96994 21.1212 9.43625 21.1212Z" fill="#3097F5"/>
<path d="M18.8781 21.1154V26.8406C16.158 26.8406 13.7906 28.3804 12.6035 30.6325V27.39C12.6035 23.9305 15.4186 21.1154 18.8781 21.1154Z" fill="#3097F5"/>
<path d="M30.5771 18.8781C34.0435 18.8781 36.8518 16.0698 36.8518 12.6035V0C33.3855 0 30.5771 2.80832 30.5771 6.27463V18.8781Z" fill="#3097F5"/>
<path d="M21.1284 18.878V13.1529C23.8486 13.1529 26.216 11.613 27.403 9.36096V12.6034C27.4098 16.0697 24.5947 18.878 21.1284 18.878Z" fill="#3097F5"/>
</svg>
