<svg width="164" height="58" viewBox="0 0 164 58" fill="none" xmlns="http://www.w3.org/2000/svg">
<path d="M83 12H91.6914C94.8043 12 97.2356 12.7083 98.9853 14.125C100.735 15.5303 101.61 17.4343 101.61 19.837C101.61 21.5483 101.15 23.0273 100.229 24.274C99.3204 25.5093 98.0309 26.4217 96.3608 27.011L102.428 37.5H96.5824L90.9245 27.725H88.2148V37.5H83V12ZM91.0778 23.407C92.7934 23.407 94.0943 23.0897 94.9804 22.455C95.878 21.8203 96.3267 20.9533 96.3267 19.854C96.3267 18.7547 95.878 17.8933 94.9804 17.27C94.0943 16.6467 92.7934 16.335 91.0778 16.335H88.2148V23.407H91.0778Z" fill="#2D2D2D"/>
<path d="M108.58 30.462C108.887 31.4027 109.449 32.1677 110.267 32.757C111.096 33.3463 112.062 33.641 113.164 33.641C114.346 33.641 115.323 33.454 116.095 33.08C116.879 32.6947 117.589 32.2017 118.226 31.601L121.191 35.137C119.873 36.1683 118.566 36.8767 117.271 37.262C115.987 37.6473 114.755 37.84 113.573 37.84C111.687 37.84 110.023 37.4603 108.58 36.701C107.137 35.9303 106.007 34.8763 105.189 33.539C104.371 32.1903 103.961 30.6603 103.961 28.949C103.961 27.2603 104.353 25.7587 105.137 24.444C105.921 23.118 106.989 22.0753 108.341 21.316C109.705 20.5453 111.25 20.16 112.977 20.16C114.692 20.16 116.215 20.5397 117.544 21.299C118.884 22.0583 119.941 23.101 120.714 24.427C121.486 25.753 121.873 27.2717 121.873 28.983V30.462H108.58ZM116.828 27.742C116.59 26.7447 116.101 25.94 115.363 25.328C114.624 24.716 113.738 24.41 112.704 24.41C111.659 24.41 110.75 24.7217 109.977 25.345C109.216 25.9683 108.716 26.7673 108.478 27.742H116.828Z" fill="#2D2D2D"/>
<path d="M125.127 20.5H129.763L129.882 22.336C130.598 21.6447 131.433 21.112 132.387 20.738C133.342 20.3527 134.37 20.16 135.472 20.16C137.074 20.16 138.5 20.5453 139.749 21.316C140.999 22.0753 141.982 23.1237 142.698 24.461C143.413 25.787 143.771 27.3 143.771 29C143.771 30.7 143.413 32.2187 142.698 33.556C141.982 34.882 140.999 35.9303 139.749 36.701C138.5 37.4603 137.074 37.84 135.472 37.84C134.404 37.84 133.41 37.6643 132.49 37.313C131.569 36.9503 130.751 36.4517 130.036 35.817V46H125.127V20.5ZM134.364 24.41C133.114 24.41 132.081 24.8463 131.263 25.719C130.445 26.5917 130.036 27.6853 130.036 29C130.036 30.3147 130.445 31.4083 131.263 32.281C132.081 33.1537 133.114 33.59 134.364 33.59C135.614 33.59 136.648 33.1537 137.466 32.281C138.284 31.4083 138.693 30.3147 138.693 29C138.693 27.6853 138.284 26.5917 137.466 25.719C136.648 24.8463 135.614 24.41 134.364 24.41Z" fill="#2D2D2D"/>
<path d="M145.816 29C145.816 27.3 146.208 25.787 146.992 24.461C147.787 23.1237 148.867 22.0753 150.23 21.316C151.605 20.5453 153.167 20.16 154.917 20.16C156.666 20.16 158.223 20.5453 159.586 21.316C160.95 22.0753 162.023 23.1237 162.807 24.461C163.602 25.787 164 27.3 164 29C164 30.7 163.602 32.2187 162.807 33.556C162.023 34.882 160.95 35.9303 159.586 36.701C158.223 37.4603 156.666 37.84 154.917 37.84C153.167 37.84 151.605 37.4603 150.23 36.701C148.867 35.9303 147.787 34.882 146.992 33.556C146.208 32.2187 145.816 30.7 145.816 29ZM150.588 29C150.588 30.3147 150.997 31.4083 151.815 32.281C152.633 33.1537 153.667 33.59 154.917 33.59C156.166 33.59 157.2 33.1537 158.018 32.281C158.836 31.4083 159.245 30.3147 159.245 29C159.245 27.6853 158.836 26.5917 158.018 25.719C157.2 24.8463 156.166 24.41 154.917 24.41C153.667 24.41 152.633 24.8463 151.815 25.719C150.997 26.5917 150.588 27.6853 150.588 29Z" fill="#2D2D2D"/>
<path d="M31 44C31 48.9719 35.0165 53 39.9741 53H58C58 48.0281 53.9835 44 49.0259 44H31Z" fill="#2D2D2D"/>
<path d="M31 31H38.8204C38.8204 34.9016 40.9237 38.2973 44 40H39.5709C34.8361 40 31 35.9719 31 31Z" fill="#2D2D2D"/>
<path d="M27 14C27 9.02811 22.9835 5 18.0259 5H0C0 9.97189 4.01653 14 8.97413 14H27Z" fill="#2D2D2D"/>
<path d="M27 27H19.1796C19.1796 23.0984 17.0763 19.7027 14 18H18.4291C23.1639 18 27 22.0281 27 27Z" fill="#2D2D2D"/>
<path d="M14 31V49.0259C14 53.9835 9.97189 58 5 58V39.9741C5 35.0165 9.02811 31 14 31Z" fill="#2D2D2D"/>
<path d="M27 31V38.8204C23.0984 38.8204 19.7027 40.9237 18 44V39.5709C18 34.8453 22.0378 31 27 31Z" fill="#2D2D2D"/>
<path d="M44 27C48.9719 27 53 22.9835 53 18.0259V0C48.0281 0 44 4.01653 44 8.97413V27Z" fill="#2D2D2D"/>
<path d="M31 27V19.1796C34.9016 19.1796 38.2973 17.0763 40 14V18.4291C40.0097 23.1639 35.9719 27 31 27Z" fill="#2D2D2D"/>
</svg>
